<svg width="139" height="32" viewBox="0 0 139 32" fill="none" xmlns="http://www.w3.org/2000/svg">
<g clip-path="url(#clip0_301_9671)">
<path d="M9.10049 12.276C8.74 12.276 8.4516 12.708 8.4516 13.236C8.4516 13.764 8.74 14.196 9.10049 14.196C9.46099 14.196 9.74938 13.764 9.74938 13.236C9.74938 12.708 9.45298 12.276 9.10049 12.276ZM4.65439 12.276C4.29389 12.276 4.0055 12.708 4.0055 13.236C4.0055 13.764 4.29389 14.196 4.65439 14.196C5.01488 14.196 5.30328 13.764 5.30328 13.236C5.30328 12.708 5.00687 12.276 4.65439 12.276ZM13.2743 11.084L13.2262 11.076V9.90802C13.2262 8.97202 12.4651 8.21202 11.5279 8.21202H2.22706C1.28977 8.22002 0.528726 8.98002 0.528726 9.90802V11.068L0.48066 11.084C0.208286 11.124 0 11.372 0 11.644V13.54C0 13.812 0.208286 14.06 0.48066 14.1L0.528726 14.108V16.012C0.528726 16.948 1.28977 17.708 2.22706 17.708H4.8787V18.156H4.65439L3.82124 18.492V18.612H3.50882V18.94C2.85992 18.972 2.34722 19.508 2.34722 20.164V20.532H2.21904C2.06684 20.684 1.97871 20.772 1.82651 20.924V22.012L2.21904 22.404H3.05219L3.22042 22.236V21.676H3.54887V20.788C3.54887 20.652 3.43672 20.532 3.29252 20.532H3.1323V20.164C3.1323 19.948 3.29252 19.764 3.5008 19.732V20.172H3.8613V21.484L4.29389 21.98V22.66C3.95743 22.66 3.58893 22.692 3.10827 23.108V23.788H6.66515V22.468H7.09774V23.788H10.6547V23.108C10.174 22.692 9.80546 22.66 9.469 22.66V21.98L9.92567 21.484V20.172H10.2701V19.732C10.4864 19.756 10.6466 19.94 10.6466 20.164V20.532H10.4944C10.3582 20.532 10.2381 20.644 10.2381 20.788V21.692H10.5665V22.252L10.7348 22.42H11.5679C11.7201 22.268 11.8082 22.18 11.9604 22.028V20.94L11.5679 20.548H11.4397V20.18C11.4397 19.524 10.919 18.988 10.2701 18.956V18.628H9.95767V18.508L9.12452 18.172H8.89221V17.724H11.5118C12.4491 17.724 13.2102 16.964 13.2102 16.028V14.108L13.2582 14.1C13.5306 14.06 13.7389 13.812 13.7389 13.54V11.644C13.7549 11.372 13.5386 11.124 13.2743 11.084ZM12.7776 15.628C12.7776 16.372 12.1687 16.98 11.4237 16.98H2.3312C1.58618 16.98 0.977342 16.372 0.977342 15.628V10.204C0.977342 9.46002 1.58618 8.85202 2.3312 8.85202H11.4237C12.1687 8.85202 12.7776 9.46002 12.7776 10.204V15.628Z" fill="white"/>
<path d="M38.3113 17.184C38.2712 17.624 38.2071 18.072 38.135 18.512C38.0549 18.952 37.9508 19.392 37.8306 19.816C37.7024 20.24 37.5502 20.632 37.382 20.976C37.1417 21.48 36.8373 21.912 36.4607 22.272C36.0762 22.624 35.6436 22.92 35.1549 23.16C34.7944 23.336 34.4179 23.472 34.0254 23.56C33.6409 23.656 33.2483 23.72 32.8478 23.76C32.4552 23.8 32.0467 23.816 31.6381 23.816C31.2376 23.816 30.845 23.816 30.4525 23.816H23.7393V8.01601H30.4525C31.1014 8.01601 31.7583 8.04801 32.4312 8.11201C33.1041 8.17601 33.745 8.31201 34.3538 8.52801C34.9627 8.74401 35.5234 9.04 36.0362 9.432C36.5489 9.816 36.9734 10.328 37.3099 10.96C37.6704 11.672 37.9428 12.488 38.119 13.4C38.2953 14.312 38.3754 15.168 38.3754 15.96C38.3674 16.336 38.3513 16.744 38.3113 17.184ZM34.442 13.992C34.3058 13.304 34.0815 12.704 33.761 12.192C33.3845 11.584 32.8958 11.2 32.311 11.032C31.7262 10.864 31.1014 10.776 30.4365 10.776H27.0879V21.048H30.4365C30.813 21.048 31.2376 21.008 31.7102 20.928C32.1749 20.848 32.5754 20.72 32.9119 20.544C33.2563 20.352 33.5447 20.072 33.769 19.696C33.9853 19.32 34.1616 18.912 34.2898 18.472C34.4179 18.032 34.5061 17.584 34.5621 17.128C34.6182 16.672 34.6422 16.272 34.6502 15.92C34.6422 15.32 34.5782 14.68 34.442 13.992ZM44.2314 23.8C43.7988 23.8 43.3742 23.8 42.9336 23.784C42.501 23.776 42.0764 23.72 41.6599 23.608C40.9309 23.416 40.3781 23.008 39.9936 22.392C39.6091 21.768 39.4248 21.104 39.4248 20.392C39.4248 19.84 39.545 19.296 39.7693 18.76C40.0016 18.224 40.3461 17.776 40.8027 17.432C41.011 17.272 41.2593 17.152 41.5397 17.064C41.8281 16.976 42.1245 16.912 42.4369 16.872C42.7494 16.832 43.0538 16.808 43.3502 16.8C43.6546 16.792 43.927 16.792 44.1833 16.792H48.0927V16.6C48.0927 16.192 48.0366 15.864 47.9245 15.616C47.8203 15.376 47.6601 15.184 47.4438 15.048C47.2275 14.912 46.9712 14.824 46.6748 14.784C46.3703 14.744 46.0419 14.728 45.6814 14.728H40.314V12.264H45.6814C45.9057 12.264 46.122 12.264 46.3383 12.272C46.5466 12.28 46.7709 12.288 46.9872 12.288C47.9645 12.32 48.8057 12.528 49.4946 12.904C50.1836 13.288 50.6883 13.968 51.0087 14.968C51.1369 15.36 51.209 15.752 51.233 16.128C51.2571 16.512 51.2651 16.904 51.2651 17.312V23.8H44.2314ZM48.1007 19.256H43.8869C43.5505 19.256 43.2701 19.344 43.0378 19.512C42.8054 19.688 42.6933 19.952 42.6933 20.312C42.6933 20.56 42.7414 20.752 42.8455 20.888C42.9496 21.024 43.0858 21.12 43.2461 21.184C43.4143 21.248 43.5985 21.288 43.8068 21.304C44.0151 21.32 44.2154 21.328 44.3996 21.328H48.0927L48.1007 19.256ZM58.2827 23.816C57.4976 23.816 56.7846 23.68 56.1598 23.4C55.5269 23.12 55.0623 22.592 54.7659 21.8C54.6377 21.416 54.5576 21.04 54.5336 20.648C54.5015 20.256 54.4855 19.864 54.4855 19.472V14.728H52.4667V12.264H54.4855V8.01601H57.6498V12.264H60.5899V14.736H57.6498V18.936C57.6498 19.192 57.6498 19.504 57.6578 19.88C57.6659 20.264 57.746 20.56 57.9062 20.784C58.0504 20.976 58.2266 21.112 58.4509 21.2C58.6752 21.288 58.9076 21.344 59.1639 21.368C59.4203 21.392 59.6686 21.392 59.925 21.384C60.1813 21.368 60.3976 21.36 60.5899 21.36V23.824L58.2827 23.816ZM66.2697 23.8C65.8451 23.8 65.4125 23.8 64.9719 23.784C64.5393 23.776 64.1067 23.72 63.6981 23.608C62.9691 23.416 62.4164 23.016 62.0319 22.392C61.6553 21.768 61.4631 21.104 61.4631 20.392C61.4631 19.84 61.5752 19.296 61.8075 18.76C62.0399 18.224 62.3843 17.784 62.841 17.432C63.0493 17.272 63.2976 17.152 63.578 17.064C63.8664 16.976 64.1628 16.912 64.4752 16.872C64.7876 16.832 65.0921 16.808 65.3885 16.8C65.6929 16.792 65.9653 16.792 66.2216 16.784H70.131V16.592C70.131 16.184 70.0749 15.856 69.9627 15.608C69.8506 15.36 69.6904 15.176 69.4741 15.04C69.2578 14.904 69.0014 14.816 68.705 14.776C68.4006 14.736 68.0721 14.72 67.7036 14.72H62.3363V12.256H67.7036C67.9279 12.256 68.1442 12.256 68.3605 12.264C68.5688 12.272 68.7931 12.28 69.0094 12.272C69.9868 12.304 70.8279 12.512 71.5169 12.888C72.2058 13.272 72.7105 13.952 73.031 14.952C73.1591 15.344 73.2312 15.736 73.2553 16.112C73.2793 16.488 73.2953 16.888 73.2873 17.296V23.784H66.2697V23.8ZM70.139 19.256H65.9252C65.5887 19.256 65.3084 19.344 65.076 19.512C64.8437 19.688 64.7316 19.952 64.7316 20.312C64.7316 20.56 64.7796 20.76 64.8838 20.888C64.9879 21.024 65.1241 21.12 65.2923 21.184C65.4606 21.248 65.6448 21.288 65.8531 21.304C66.0614 21.32 66.2617 21.328 66.4539 21.328H70.147L70.139 19.256Z" fill="white"/>
<path d="M86.4224 23.816C86.2943 23.456 86.2141 23.08 86.1821 22.704C86.1501 22.328 86.11 21.944 86.0619 21.568C85.9818 20.84 85.8536 20.24 85.6694 19.76C85.4851 19.28 85.2288 18.896 84.9003 18.616C84.5639 18.328 84.1473 18.128 83.6426 18.008C83.1379 17.888 82.5211 17.832 81.7921 17.832H79.0844V23.824H75.7197V8.01601H83.4584C84.0432 8.01601 84.644 8.03201 85.2528 8.07201C85.8617 8.11201 86.4465 8.20801 86.9992 8.36801C87.9365 8.64001 88.6655 9.144 89.1862 9.888C89.7069 10.632 89.9713 11.472 89.9713 12.424C89.9713 13.512 89.739 14.464 89.2824 15.28C88.8257 16.096 88.0487 16.672 86.9592 17.024C87.3036 17.152 87.6 17.272 87.8484 17.392C88.0967 17.512 88.313 17.656 88.4973 17.816C88.6895 17.984 88.8578 18.176 89.002 18.408C89.1462 18.64 89.2824 18.928 89.4266 19.272C89.6509 19.792 89.771 20.328 89.7951 20.88C89.8191 21.432 89.8591 21.984 89.9312 22.536C89.9793 22.944 90.0754 23.376 90.2116 23.816H86.4224ZM86.0459 11.792C85.9177 11.52 85.7495 11.32 85.5332 11.176C85.3249 11.032 85.0606 10.928 84.7642 10.872C84.4597 10.816 84.1393 10.784 83.7948 10.784H79.0763V15.064H83.7868C84.5639 15.064 85.1567 14.904 85.5893 14.592C86.0219 14.272 86.2302 13.688 86.2302 12.832C86.2382 12.4 86.1741 12.056 86.0459 11.792ZM102.869 20.672C102.565 21.392 102.132 22 101.587 22.488C101.043 22.976 100.394 23.352 99.6406 23.6C98.8875 23.856 98.0624 23.984 97.1652 23.984C95.2345 23.984 93.7445 23.456 92.687 22.408C91.6296 21.352 91.1009 19.864 91.1009 17.936C91.1009 17.032 91.2531 16.224 91.5495 15.496C91.8459 14.768 92.2705 14.152 92.8072 13.656C93.3439 13.16 93.9848 12.776 94.7378 12.504C95.4909 12.24 96.308 12.104 97.1892 12.104C99.1199 12.104 100.626 12.632 101.707 13.696C102.789 14.76 103.334 16.256 103.334 18.208C103.334 19.128 103.181 19.952 102.869 20.672ZM99.929 16.672C99.8328 16.256 99.6806 15.888 99.4563 15.576C99.232 15.264 98.9436 15.016 98.5671 14.84C98.1986 14.664 97.75 14.568 97.2132 14.568C96.6445 14.568 96.1798 14.664 95.8113 14.848C95.4428 15.032 95.1544 15.288 94.9381 15.608C94.7218 15.928 94.5776 16.304 94.4895 16.728C94.4014 17.16 94.3613 17.616 94.3613 18.12C94.3613 18.6 94.4094 19.048 94.5135 19.464C94.6177 19.88 94.7779 20.232 95.0102 20.536C95.2425 20.84 95.5389 21.08 95.9074 21.248C96.276 21.416 96.7326 21.504 97.2613 21.504C97.798 21.504 98.2467 21.408 98.6072 21.224C98.9677 21.04 99.256 20.784 99.4804 20.48C99.6967 20.168 99.8489 19.8 99.937 19.368C100.025 18.936 100.065 18.488 100.065 18.024C100.065 17.544 100.017 17.096 99.929 16.672ZM116.287 20.784C115.895 21.672 115.246 22.4 114.349 22.968C113.7 23.384 113.051 23.624 112.386 23.704C111.721 23.784 111.024 23.824 110.279 23.824H105.112V8.01601H108.276V12.264H111.096C112.915 12.264 114.333 12.744 115.35 13.696C116.367 14.656 116.88 16.048 116.88 17.888C116.88 18.928 116.68 19.896 116.287 20.784ZM112.987 15.584C112.498 15.016 111.721 14.728 110.648 14.728H108.276V21.344H110.648C111.673 21.344 112.442 21.024 112.947 20.384C113.459 19.744 113.716 18.944 113.716 17.976C113.716 16.952 113.467 16.152 112.987 15.584ZM129.658 20.672C129.345 21.392 128.921 22 128.376 22.488C127.831 22.976 127.182 23.352 126.437 23.6C125.684 23.856 124.859 23.984 123.962 23.984C122.031 23.984 120.541 23.456 119.484 22.408C118.426 21.36 117.898 19.864 117.898 17.936C117.898 17.032 118.05 16.224 118.346 15.496C118.651 14.768 119.067 14.152 119.604 13.656C120.141 13.16 120.781 12.776 121.535 12.504C122.288 12.232 123.105 12.104 123.986 12.096C125.917 12.096 127.423 12.624 128.504 13.688C129.586 14.752 130.122 16.248 130.13 18.192C130.122 19.128 129.97 19.952 129.658 20.672ZM126.718 16.672C126.622 16.248 126.469 15.88 126.245 15.568C126.029 15.256 125.732 15.016 125.364 14.832C124.995 14.656 124.539 14.56 124.01 14.56C123.441 14.56 122.977 14.656 122.608 14.84C122.239 15.024 121.951 15.28 121.735 15.6C121.519 15.92 121.374 16.296 121.286 16.72C121.198 17.152 121.158 17.608 121.158 18.112C121.158 18.592 121.206 19.04 121.31 19.456C121.414 19.872 121.575 20.224 121.807 20.528C122.039 20.832 122.336 21.072 122.704 21.24C123.073 21.408 123.521 21.496 124.058 21.496C124.595 21.496 125.043 21.4 125.404 21.216C125.764 21.032 126.061 20.784 126.277 20.472C126.493 20.16 126.654 19.792 126.734 19.36C126.814 18.928 126.862 18.48 126.862 18.016C126.854 17.544 126.814 17.096 126.718 16.672ZM136.539 23.816C135.746 23.816 135.041 23.68 134.408 23.4C133.775 23.12 133.311 22.592 133.014 21.8C132.886 21.424 132.806 21.04 132.774 20.648C132.742 20.256 132.726 19.864 132.726 19.472V14.728H130.707V12.264H132.726V8.01601H135.89V12.264H138.838V14.736H135.898V18.936C135.898 19.192 135.898 19.504 135.906 19.888C135.914 20.264 135.994 20.568 136.155 20.792C136.299 20.984 136.475 21.12 136.699 21.208C136.924 21.296 137.156 21.352 137.412 21.376C137.661 21.4 137.917 21.408 138.173 21.392C138.43 21.376 138.646 21.368 138.838 21.368V23.832H136.539V23.816Z" fill="#428BCA"/>
</g>
<defs>
<clipPath id="clip0_301_9671">
<rect width="138.839" height="32" fill="white"/>
</clipPath>
</defs>
</svg>
