<svg width="133" height="20" viewBox="0 0 133 20" fill="none" xmlns="http://www.w3.org/2000/svg">
    <path
        d="M41.6976 15.7579C43.1988 14.4174 43.961 12.4807 43.961 10.0047C43.961 7.52875 43.2221 5.63352 41.6976 4.26718C40.1809 2.91122 38.1794 2.22417 35.7475 2.22417H31.2959V17.7801H35.7475C38.2364 17.7801 40.1835 17.119 41.6976 15.7604V15.7579ZM33.5282 4.23348H35.7916C39.5328 4.23348 41.6795 6.33613 41.6795 10.0047C41.6795 13.6734 39.5717 15.7371 35.8901 15.776V15.7812H33.5282V4.23348Z"
        fill="white" />
    <path
        d="M60.6859 18.1042C61.2693 18.1042 61.793 18.0238 62.2441 17.8657L62.0626 16.1208C61.7904 16.1934 61.5519 16.2271 61.3159 16.2271C60.2322 16.2271 59.6852 15.6412 59.6852 14.4874V8.46728H62.1819V6.82094H59.6852V3.80309H57.5877V6.82094H55.7832V8.47247H57.5877V14.8971C57.5877 17.0542 58.6014 18.1042 60.6885 18.1042H60.6859Z"
        fill="white" />
    <path
        d="M81.1526 11.1927L84.7978 17.7858H87.3827L83.4834 10.9749L83.6078 10.9412C85.9023 10.3449 87.2712 8.71413 87.2712 6.57777C87.2712 5.27626 86.8123 4.24697 85.866 3.43288C84.9145 2.61619 83.6597 2.21951 82.0341 2.21951H75.625V17.7832H77.8625V11.1383H81.1266L81.1551 11.1901H81.1526V11.1927ZM77.8625 4.14067H81.8811C83.9811 4.14067 85.0441 4.99884 85.0441 6.69185C85.0441 8.38486 83.9811 9.22488 81.8811 9.22488H77.8625V4.14067Z"
        fill="white" />
    <path
        d="M97.9949 8.11535C96.88 7.0368 95.3633 6.44308 93.8388 6.49234C92.2599 6.49234 90.8728 7.01606 89.7113 8.04534C88.5342 9.085 87.9639 10.4747 87.9639 12.2973C87.9639 14.1199 88.4824 15.3722 89.548 16.3963V16.3911L89.7113 16.5363C90.8728 17.5682 92.2599 18.0893 93.8337 18.0893C95.3711 18.136 96.88 17.5474 97.9923 16.4663C98.7727 15.7092 99.7034 14.3714 99.7034 12.2895C99.7034 10.2076 98.7727 8.86722 97.9923 8.11275L97.9949 8.11535ZM96.4756 15.0922C95.7522 15.813 94.8552 16.1785 93.8129 16.1785C92.7707 16.1785 91.8995 15.813 91.1762 15.0922C90.471 14.387 90.1132 13.4459 90.1132 12.2999C90.1132 11.1539 90.471 10.2102 91.1762 9.5076C91.8995 8.78684 92.7888 8.42128 93.8129 8.42128C94.837 8.42128 95.7496 8.78684 96.4756 9.5076C97.1963 10.2284 97.5619 11.1695 97.5619 12.2999C97.5619 13.4303 97.1963 14.3714 96.4756 15.0922Z"
        fill="white" />
    <path
        d="M107.168 18.0941C108.659 18.0941 109.917 17.56 110.902 16.5048C111.903 15.4159 112.408 14.0003 112.408 12.2943C112.408 10.5884 111.91 9.15721 110.925 8.10459C109.953 7.02086 108.76 6.49455 107.285 6.49455C105.701 6.49455 104.275 7.22827 103.471 8.4572L103.29 8.73461V2.22185H101.192V17.7752H103.29V15.8929L103.471 16.1807C104.218 17.3604 105.636 18.0941 107.171 18.0941H107.168ZM103.142 12.2995C103.142 11.1743 103.492 10.2409 104.182 9.53056C104.879 8.78387 105.704 8.41831 106.704 8.41831C107.705 8.41831 108.566 8.79424 109.235 9.53315C109.922 10.2384 110.272 11.1691 110.272 12.2995C110.272 13.4299 109.932 14.3451 109.235 15.0892C108.569 15.8022 107.692 16.1781 106.704 16.1781C105.717 16.1781 104.882 15.8126 104.182 15.0892C103.492 14.3555 103.142 13.417 103.142 12.2969V12.2995Z"
        fill="white" />
    <path
        d="M123.922 8.11535C122.807 7.0368 121.29 6.44308 119.766 6.49234C118.187 6.49234 116.8 7.01606 115.638 8.04534C114.461 9.085 113.891 10.4747 113.891 12.2973C113.891 14.1199 114.409 15.3722 115.475 16.3963V16.3911L115.638 16.5363C116.8 17.5682 118.187 18.0893 119.76 18.0893C121.295 18.136 122.807 17.5474 123.919 16.4663C124.699 15.7092 125.63 14.3714 125.63 12.2895C125.63 10.2076 124.699 8.86722 123.919 8.11275L123.922 8.11535ZM122.4 15.0922C121.676 15.813 120.779 16.1785 119.737 16.1785C118.695 16.1785 117.824 15.813 117.1 15.0922C116.395 14.387 116.037 13.4459 116.037 12.2999C116.037 11.1539 116.395 10.2102 117.1 9.5076C117.824 8.78684 118.713 8.42128 119.737 8.42128C120.761 8.42128 121.674 8.78684 122.4 9.5076C123.12 10.2284 123.486 11.1695 123.486 12.2999C123.486 13.4303 123.12 14.374 122.4 15.0922Z"
        fill="white" />
    <path
        d="M130.88 18.1042C131.464 18.1042 131.987 18.0238 132.438 17.8657L132.257 16.1208C131.985 16.1934 131.746 16.2271 131.51 16.2271C130.427 16.2271 129.879 15.6412 129.879 14.4874V8.46728H132.376V6.82094H129.879V3.80309H127.782V6.82094H125.978V8.47247H127.782V14.8971C127.782 17.0542 128.796 18.1042 130.883 18.1042H130.88Z"
        fill="white" />
    <path d="M15.5554 2.22185H10.3701V4.44376H15.5554V2.22185Z" fill="white" />
    <path d="M10.3706 0H0V2.22191H10.3706V0Z" fill="white" />
    <path d="M10.3706 4.44368H0V6.66559H10.3706V4.44368Z" fill="white" />
    <path d="M20.742 6.66837H15.5566V8.89028H20.742V6.66837Z" fill="white" />
    <path d="M15.556 8.89021H0V11.1121H15.556V8.89021Z" fill="white" />
    <path d="M20.742 11.1124H15.5566V13.3344H20.742V11.1124Z" fill="white" />
    <path d="M10.3706 13.3343H0V15.5562H10.3706V13.3343Z" fill="white" />
    <path d="M10.3706 17.7781H0V20H10.3706V17.7781Z" fill="white" />
    <path d="M15.5554 15.5563H10.3701V17.7782H15.5554V15.5563Z" fill="white" />
    <path
        d="M50.1427 6.50787H49.9094C48.6753 6.54158 47.7004 6.84751 46.9382 7.44382C46.2459 7.98828 45.8596 8.60793 45.7611 9.33906C45.7611 9.33906 45.7067 9.77722 45.6989 10.0106H47.6641C47.6667 9.76685 47.7549 9.34165 47.7549 9.34165C47.9026 8.51978 48.8075 8.01162 50.1427 8.01162C51.7398 8.01162 52.5824 8.71682 52.5824 10.0469V10.6069L48.9656 11.1824C46.5156 11.5636 45.1104 12.8651 45.1104 14.7551C45.1104 16.7567 46.6011 18.1022 48.8179 18.1022C50.5005 18.1022 51.719 17.3556 52.4424 15.8855L52.6291 15.5044V17.7885H54.6825V17.7963L54.685 10.192C54.685 7.78346 53.1165 6.50787 50.1453 6.50787H50.1427ZM52.585 12.5695C52.5668 14.8173 51.172 16.3833 49.1782 16.3833C48.0038 16.3833 47.213 15.6755 47.213 14.6203C47.213 13.5651 47.9675 12.891 49.4582 12.6317L52.5928 12.0925L52.585 12.5695Z"
        fill="white" />
    <path
        d="M68.4406 6.50787H68.2072C66.9731 6.54158 65.9983 6.84751 65.236 7.44382C64.5438 7.98828 64.1575 8.60793 64.059 9.33906C64.059 9.33906 64.0045 9.77722 63.9967 10.0106H65.962C65.9646 9.76685 66.0527 9.34165 66.0527 9.34165C66.2005 8.51978 67.1053 8.01162 68.4406 8.01162C70.0376 8.01162 70.8803 8.71682 70.8803 10.0469V10.6069L67.2635 11.1824C64.8134 11.5636 63.4082 12.8651 63.4082 14.7551C63.4082 16.7567 64.899 18.1022 67.1157 18.1022C68.7983 18.1022 70.0169 17.3556 70.7402 15.8855L70.9269 15.5044V17.7885H72.9803V17.7963L72.9829 10.192C72.9829 7.78346 71.4143 6.50787 68.4431 6.50787H68.4406ZM70.8828 12.5695C70.8647 14.8173 69.4698 16.3833 67.4761 16.3833C66.3016 16.3833 65.5108 15.6755 65.5108 14.6203C65.5108 13.5651 66.2653 12.891 67.7561 12.6317L70.8906 12.0925L70.8828 12.5695Z"
        fill="white" />
</svg>
    
